<mxfile host="65bd71144e">
    <diagram name="Page-1" id="nciRwOpZw9opt4-sPwye">
        <mxGraphModel dx="986" dy="1505" grid="1" gridSize="10" guides="1" tooltips="1" connect="1" arrows="1" fold="1" page="1" pageScale="1" pageWidth="850" pageHeight="1100" math="0" shadow="0">
            <root>
                <mxCell id="0"/>
                <mxCell id="1" parent="0"/>
                <mxCell id="ExdATO0kJBKR-__0TGWd-1" value="" style="edgeStyle=orthogonalEdgeStyle;rounded=0;orthogonalLoop=1;jettySize=auto;html=1;fontSize=9;" parent="1" source="ExdATO0kJBKR-__0TGWd-2" target="ExdATO0kJBKR-__0TGWd-4" edge="1">
                    <mxGeometry relative="1" as="geometry"/>
                </mxCell>
                <mxCell id="ExdATO0kJBKR-__0TGWd-2" value="" style="ellipse;whiteSpace=wrap;html=1;aspect=fixed;fillColor=#000000;" parent="1" vertex="1">
                    <mxGeometry x="80" y="10" width="40" height="40" as="geometry"/>
                </mxCell>
                <mxCell id="ExdATO0kJBKR-__0TGWd-3" value="" style="edgeStyle=orthogonalEdgeStyle;rounded=0;orthogonalLoop=1;jettySize=auto;html=1;" parent="1" source="ExdATO0kJBKR-__0TGWd-4" target="ExdATO0kJBKR-__0TGWd-6" edge="1">
                    <mxGeometry relative="1" as="geometry"/>
                </mxCell>
                <mxCell id="ExdATO0kJBKR-__0TGWd-4" value="loadPage( )" style="rounded=1;whiteSpace=wrap;html=1;fillColor=#FFFFFF;" parent="1" vertex="1">
                    <mxGeometry x="40" y="110" width="120" height="60" as="geometry"/>
                </mxCell>
                <mxCell id="ExdATO0kJBKR-__0TGWd-5" value="" style="edgeStyle=orthogonalEdgeStyle;rounded=0;orthogonalLoop=1;jettySize=auto;html=1;fontSize=9;" parent="1" source="ExdATO0kJBKR-__0TGWd-6" target="ExdATO0kJBKR-__0TGWd-8" edge="1">
                    <mxGeometry relative="1" as="geometry"/>
                </mxCell>
                <mxCell id="ExdATO0kJBKR-__0TGWd-6" value="loadJSON( )" style="rounded=1;whiteSpace=wrap;html=1;fillColor=#FFFFFF;" parent="1" vertex="1">
                    <mxGeometry x="40" y="230" width="120" height="60" as="geometry"/>
                </mxCell>
                <mxCell id="ExdATO0kJBKR-__0TGWd-7" value="" style="edgeStyle=orthogonalEdgeStyle;rounded=0;orthogonalLoop=1;jettySize=auto;html=1;fontSize=9;entryX=0.5;entryY=0;entryDx=0;entryDy=0;" parent="1" source="ExdATO0kJBKR-__0TGWd-8" target="ExdATO0kJBKR-__0TGWd-10" edge="1">
                    <mxGeometry relative="1" as="geometry"/>
                </mxCell>
                <mxCell id="ExdATO0kJBKR-__0TGWd-8" value="async&lt;br&gt;getData ( )" style="rounded=1;whiteSpace=wrap;html=1;fillColor=#FFFFFF;" parent="1" vertex="1">
                    <mxGeometry x="40" y="330" width="120" height="60" as="geometry"/>
                </mxCell>
                <mxCell id="ExdATO0kJBKR-__0TGWd-9" value="" style="edgeStyle=orthogonalEdgeStyle;rounded=0;orthogonalLoop=1;jettySize=auto;html=1;fontSize=9;" parent="1" source="ExdATO0kJBKR-__0TGWd-10" target="ExdATO0kJBKR-__0TGWd-12" edge="1">
                    <mxGeometry relative="1" as="geometry"/>
                </mxCell>
                <mxCell id="ExdATO0kJBKR-__0TGWd-10" value="showListOfStudents( )&lt;br&gt;" style="rounded=1;whiteSpace=wrap;html=1;fillColor=#FFFFFF;" parent="1" vertex="1">
                    <mxGeometry x="37.5" y="420" width="125" height="60" as="geometry"/>
                </mxCell>
                <mxCell id="ExdATO0kJBKR-__0TGWd-11" value="" style="edgeStyle=orthogonalEdgeStyle;rounded=0;orthogonalLoop=1;jettySize=auto;html=1;fontSize=9;entryX=0.5;entryY=0;entryDx=0;entryDy=0;" parent="1" source="ExdATO0kJBKR-__0TGWd-12" target="ExdATO0kJBKR-__0TGWd-15" edge="1">
                    <mxGeometry relative="1" as="geometry"/>
                </mxCell>
                <mxCell id="ExdATO0kJBKR-__0TGWd-12" value="prepareObjects( )" style="rounded=1;whiteSpace=wrap;html=1;fillColor=#FFFFFF;" parent="1" vertex="1">
                    <mxGeometry x="37.5" y="510" width="125" height="60" as="geometry"/>
                </mxCell>
                <mxCell id="ExdATO0kJBKR-__0TGWd-13" value="&lt;font style=&quot;font-size: 9px;&quot;&gt;jsonData&lt;/font&gt;" style="rounded=0;whiteSpace=wrap;html=1;fillColor=#fff2cc;strokeColor=#d6b656;" parent="1" vertex="1">
                    <mxGeometry x="125" y="500" width="80" height="20" as="geometry"/>
                </mxCell>
                <mxCell id="ExdATO0kJBKR-__0TGWd-14" value="" style="edgeStyle=orthogonalEdgeStyle;rounded=0;orthogonalLoop=1;jettySize=auto;html=1;fontSize=9;" parent="1" source="ExdATO0kJBKR-__0TGWd-15" target="ExdATO0kJBKR-__0TGWd-16" edge="1">
                    <mxGeometry relative="1" as="geometry"/>
                </mxCell>
                <mxCell id="ExdATO0kJBKR-__0TGWd-15" value="displayList( )" style="rounded=1;whiteSpace=wrap;html=1;fillColor=#FFFFFF;" parent="1" vertex="1">
                    <mxGeometry x="37.5" y="600" width="125" height="60" as="geometry"/>
                </mxCell>
                <mxCell id="ExdATO0kJBKR-__0TGWd-16" value="displayStudent( )" style="rounded=1;whiteSpace=wrap;html=1;fillColor=#FFFFFF;" parent="1" vertex="1">
                    <mxGeometry x="37.5" y="690" width="125" height="60" as="geometry"/>
                </mxCell>
                <mxCell id="ExdATO0kJBKR-__0TGWd-17" value="&lt;font size=&quot;1&quot;&gt;studentCard&lt;/font&gt;" style="rounded=0;whiteSpace=wrap;html=1;fillColor=#fff2cc;strokeColor=#d6b656;" parent="1" vertex="1">
                    <mxGeometry x="127.5" y="680" width="80" height="20" as="geometry"/>
                </mxCell>
                <mxCell id="ExdATO0kJBKR-__0TGWd-18" value="" style="edgeStyle=orthogonalEdgeStyle;rounded=0;orthogonalLoop=1;jettySize=auto;html=1;fontSize=9;" parent="1" source="ExdATO0kJBKR-__0TGWd-19" target="ExdATO0kJBKR-__0TGWd-15" edge="1">
                    <mxGeometry relative="1" as="geometry"/>
                </mxCell>
                <mxCell id="ExdATO0kJBKR-__0TGWd-19" value="filterList( )" style="rounded=1;whiteSpace=wrap;html=1;fillColor=#FFFFFF;" parent="1" vertex="1">
                    <mxGeometry x="260" y="600" width="125" height="60" as="geometry"/>
                </mxCell>
                <mxCell id="ExdATO0kJBKR-__0TGWd-20" value="" style="edgeStyle=orthogonalEdgeStyle;rounded=0;orthogonalLoop=1;jettySize=auto;html=1;fontSize=9;entryX=1;entryY=0.5;entryDx=0;entryDy=0;" parent="1" source="ExdATO0kJBKR-__0TGWd-21" target="ExdATO0kJBKR-__0TGWd-19" edge="1">
                    <mxGeometry relative="1" as="geometry"/>
                </mxCell>
                <mxCell id="ExdATO0kJBKR-__0TGWd-21" value="selectFilter( )" style="rounded=1;whiteSpace=wrap;html=1;fillColor=#FFFFFF;" parent="1" vertex="1">
                    <mxGeometry x="460" y="600" width="125" height="60" as="geometry"/>
                </mxCell>
                <mxCell id="ExdATO0kJBKR-__0TGWd-22" value="sortList( )" style="rounded=1;whiteSpace=wrap;html=1;fillColor=#FFFFFF;" parent="1" vertex="1">
                    <mxGeometry x="260" y="690" width="125" height="60" as="geometry"/>
                </mxCell>
                <mxCell id="ExdATO0kJBKR-__0TGWd-23" value="" style="edgeStyle=orthogonalEdgeStyle;rounded=0;orthogonalLoop=1;jettySize=auto;html=1;fontSize=9;entryX=1;entryY=0.5;entryDx=0;entryDy=0;" parent="1" source="ExdATO0kJBKR-__0TGWd-24" target="ExdATO0kJBKR-__0TGWd-22" edge="1">
                    <mxGeometry relative="1" as="geometry"/>
                </mxCell>
                <mxCell id="ExdATO0kJBKR-__0TGWd-24" value="selectSort( )" style="rounded=1;whiteSpace=wrap;html=1;fillColor=#FFFFFF;" parent="1" vertex="1">
                    <mxGeometry x="460" y="690" width="125" height="60" as="geometry"/>
                </mxCell>
                <mxCell id="ExdATO0kJBKR-__0TGWd-25" value="" style="edgeStyle=orthogonalEdgeStyle;rounded=0;orthogonalLoop=1;jettySize=auto;html=1;fontSize=9;entryX=1;entryY=0.5;entryDx=0;entryDy=0;" parent="1" source="ExdATO0kJBKR-__0TGWd-26" target="ExdATO0kJBKR-__0TGWd-21" edge="1">
                    <mxGeometry relative="1" as="geometry"/>
                </mxCell>
                <mxCell id="ExdATO0kJBKR-__0TGWd-26" value="select&lt;br&gt;user&amp;nbsp;&lt;br&gt;filter" style="shape=step;perimeter=stepPerimeter;whiteSpace=wrap;html=1;fixedSize=1;strokeColor=#9673a6;fontSize=9;fillColor=#e1d5e7;align=center;" parent="1" vertex="1">
                    <mxGeometry x="640" y="605" width="70" height="50" as="geometry"/>
                </mxCell>
                <mxCell id="ExdATO0kJBKR-__0TGWd-27" value="" style="edgeStyle=orthogonalEdgeStyle;rounded=0;orthogonalLoop=1;jettySize=auto;html=1;fontSize=9;entryX=1;entryY=0.5;entryDx=0;entryDy=0;" parent="1" source="ExdATO0kJBKR-__0TGWd-28" target="ExdATO0kJBKR-__0TGWd-24" edge="1">
                    <mxGeometry relative="1" as="geometry">
                        <Array as="points">
                            <mxPoint x="600" y="720"/>
                            <mxPoint x="600" y="720"/>
                        </Array>
                    </mxGeometry>
                </mxCell>
                <mxCell id="ExdATO0kJBKR-__0TGWd-28" value="select&lt;br&gt;user&amp;nbsp;&lt;br&gt;sort" style="shape=step;perimeter=stepPerimeter;whiteSpace=wrap;html=1;fixedSize=1;strokeColor=#9673a6;fontSize=9;fillColor=#e1d5e7;align=center;" parent="1" vertex="1">
                    <mxGeometry x="640" y="695" width="70" height="50" as="geometry"/>
                </mxCell>
                <mxCell id="ExdATO0kJBKR-__0TGWd-29" value="&lt;font style=&quot;font-size: 9px;&quot;&gt;studentDataUrl&lt;/font&gt;" style="rounded=0;whiteSpace=wrap;html=1;fillColor=#fff2cc;strokeColor=#d6b656;" parent="1" vertex="1">
                    <mxGeometry x="127.5" y="320" width="80" height="20" as="geometry"/>
                </mxCell>
                <mxCell id="ExdATO0kJBKR-__0TGWd-30" value="&lt;font style=&quot;font-size: 9px;&quot;&gt;event&lt;/font&gt;" style="rounded=0;whiteSpace=wrap;html=1;fillColor=#fff2cc;strokeColor=#d6b656;" parent="1" vertex="1">
                    <mxGeometry x="530" y="590" width="80" height="20" as="geometry"/>
                </mxCell>
                <mxCell id="ExdATO0kJBKR-__0TGWd-31" value="&lt;font style=&quot;font-size: 9px;&quot;&gt;filterBy&lt;/font&gt;" style="rounded=0;whiteSpace=wrap;html=1;fillColor=#fff2cc;strokeColor=#d6b656;" parent="1" vertex="1">
                    <mxGeometry x="330" y="590" width="80" height="20" as="geometry"/>
                </mxCell>
                <mxCell id="ExdATO0kJBKR-__0TGWd-32" value="&lt;font style=&quot;font-size: 9px;&quot;&gt;sortBy&lt;/font&gt;" style="rounded=0;whiteSpace=wrap;html=1;fillColor=#fff2cc;strokeColor=#d6b656;" parent="1" vertex="1">
                    <mxGeometry x="330" y="680" width="80" height="20" as="geometry"/>
                </mxCell>
                <mxCell id="ExdATO0kJBKR-__0TGWd-33" value="&lt;font style=&quot;font-size: 9px;&quot;&gt;event&lt;/font&gt;" style="rounded=0;whiteSpace=wrap;html=1;fillColor=#fff2cc;strokeColor=#d6b656;" parent="1" vertex="1">
                    <mxGeometry x="530" y="680" width="80" height="20" as="geometry"/>
                </mxCell>
                <mxCell id="ExdATO0kJBKR-__0TGWd-34" value="" style="curved=1;endArrow=classic;html=1;rounded=0;exitX=0;exitY=0.5;exitDx=0;exitDy=0;entryX=1;entryY=0.75;entryDx=0;entryDy=0;" parent="1" source="ExdATO0kJBKR-__0TGWd-22" target="ExdATO0kJBKR-__0TGWd-15" edge="1">
                    <mxGeometry width="50" height="50" relative="1" as="geometry">
                        <mxPoint x="255" y="730" as="sourcePoint"/>
                        <mxPoint x="180" y="650" as="targetPoint"/>
                        <Array as="points">
                            <mxPoint x="230" y="720"/>
                            <mxPoint x="205" y="650"/>
                        </Array>
                    </mxGeometry>
                </mxCell>
                <mxCell id="ExdATO0kJBKR-__0TGWd-39" value="" style="edgeStyle=orthogonalEdgeStyle;rounded=0;orthogonalLoop=1;jettySize=auto;html=1;" parent="1" source="ExdATO0kJBKR-__0TGWd-35" target="ExdATO0kJBKR-__0TGWd-36" edge="1">
                    <mxGeometry relative="1" as="geometry"/>
                </mxCell>
                <mxCell id="ExdATO0kJBKR-__0TGWd-35" value="select&lt;br&gt;user&amp;nbsp;&lt;br&gt;student" style="shape=step;perimeter=stepPerimeter;whiteSpace=wrap;html=1;fixedSize=1;strokeColor=#9673a6;fontSize=9;fillColor=#e1d5e7;align=center;" parent="1" vertex="1">
                    <mxGeometry x="640" y="790" width="70" height="50" as="geometry"/>
                </mxCell>
                <mxCell id="ExdATO0kJBKR-__0TGWd-36" value="showStudentDetails( )" style="rounded=1;whiteSpace=wrap;html=1;fillColor=#FFFFFF;" parent="1" vertex="1">
                    <mxGeometry x="460" y="785" width="125" height="60" as="geometry"/>
                </mxCell>
                <mxCell id="ExdATO0kJBKR-__0TGWd-40" value="" style="curved=1;endArrow=classic;html=1;rounded=0;exitX=1;exitY=0.5;exitDx=0;exitDy=0;entryX=0;entryY=0.5;entryDx=0;entryDy=0;" parent="1" source="ExdATO0kJBKR-__0TGWd-16" target="ExdATO0kJBKR-__0TGWd-36" edge="1">
                    <mxGeometry width="50" height="50" relative="1" as="geometry">
                        <mxPoint x="320" y="900" as="sourcePoint"/>
                        <mxPoint x="370" y="850" as="targetPoint"/>
                        <Array as="points">
                            <mxPoint x="220" y="750"/>
                            <mxPoint x="320" y="820"/>
                        </Array>
                    </mxGeometry>
                </mxCell>
                <mxCell id="2" value="" style="shape=note;whiteSpace=wrap;html=1;backgroundOutline=1;fontColor=#000000;darkOpacity=0.05;fillColor=#FFF9B2;strokeColor=none;fillStyle=solid;direction=west;gradientDirection=north;gradientColor=#FFF2A1;shadow=1;size=20;pointerEvents=1;" vertex="1" parent="1">
                    <mxGeometry x="350" y="680" width="140" height="160" as="geometry"/>
                </mxCell>
            </root>
        </mxGraphModel>
    </diagram>
</mxfile>